<?xml version="1.0" encoding="utf-8"?>
<!-- Designed by Vexels.com - 2016 All Rights Reserved - https://vexels.com/terms-and-conditions/  -->

<svg version="1.1" id="Layer_1" xmlns="http://www.w3.org/2000/svg" xmlns:xlink="http://www.w3.org/1999/xlink" x="0px" y="0px"
	 width="1200px" height="1200px" viewBox="0 0 1200 1200" enable-background="new 0 0 1200 1200" xml:space="preserve">
<path fill="#E0B278" d="M1134.876,563.102c-3.454-1.824-7.68-3.022-12.743-3.436c24.104,5.761,25.374,41.75,13.504,58.352
	c-13.089,18.315-34.131,23.973-55.82,20.099c-33.828-6.038-64.357-23.99-95.434-38.683c1.327-0.552,2.619-1.144,3.905-1.753
	c16.028,4.769,31.489,11.193,47.408,16.291c21.291,6.833,47.465,14.321,69.366,5.541c26.349-10.561,24.656-49.676-5.324-52.88
	c-17.108-1.83-33.722,16.705-18.246,30.589c6.307,5.652,14.893,7.15,20.396-0.309c4.208-5.724,2.482-16.219-5.341-17.814
	c4.117,1.847,6.25,7.602,4.374,11.759c-4.963,10.97-20.393,3.336-19.939-6.962c0.583-13.34,18.263-16.434,27.853-10.281
	c14.261,9.149,12.477,25.4,0.955,35.612c-9.635,8.529-23.907,11.182-36.435,10.061c-28.419-2.55-55.007-14.301-82.265-22.989
	c20.757-11.207,18.664-39.535-2.367-49.278c-11.585-5.363-27.772-5.158-35.795,6.219c-9.578,13.589,0.211,35.655,17.811,34.494
	c8.806-0.575,16.131-9.778,14.381-18.458c-1.83-9.006-16.416-15.728-21.38-5.049c4.031-8.683,16.131-0.4,15.833,6.764
	c-0.709,16.891-23.793,13.586-25.314-1.269c-0.592-5.747,1.864-12.088,5.75-16.377c11.776-12.983,34.185-4.051,39.795,10.278
	c5.598,14.338-4.151,24.202-16.074,30.435c-6.267-1.847-12.579-3.482-18.967-4.746c-2.344-0.461-4.689-0.895-7.027-1.301
	c-34.651-13.163-71.727-20.911-108.9-16.64c-25.337,2.913-51.377,7.748-76.267,15.559c-15.141-3.948-30.057-8.677-45.253-12.457
	c-14.312-3.554-29.117-6.116-43.963-6.864c3.314-27.547-35.66-43.869-58.029-32.07c-0.715,0.38-1.395,0.829-2.082,1.238
	c-4.723-13.194-14.495-23.693-23.501-35.094c-8.943,11.322-18.641,21.771-23.398,34.857c-0.555-0.332-1.092-0.692-1.67-1.001
	c-22.375-11.799-61.338,4.523-58.033,32.07c-14.844,0.749-29.642,3.311-43.966,6.864c-15.181,3.78-30.105,8.509-45.247,12.457
	c-24.894-7.811-50.936-12.646-76.262-15.559c-37.184-4.271-74.249,3.477-108.911,16.64c-2.333,0.406-4.672,0.841-7.022,1.301
	c-6.387,1.264-12.7,2.899-18.967,4.746c-11.922-6.233-21.666-16.096-16.065-30.435c5.598-14.329,28.01-23.261,39.777-10.278
	c3.894,4.288,6.341,10.63,5.753,16.377c-1.521,14.855-24.599,18.16-25.308,1.269c-0.303-7.164,11.796-15.447,15.833-6.764
	c-4.963-10.679-19.556-3.957-21.385,5.049c-1.75,8.68,5.581,17.883,14.387,18.458c17.6,1.161,27.395-20.905,17.806-34.494
	c-8.022-11.376-24.204-11.582-35.789-6.219c-21.034,9.744-23.127,38.071-2.373,49.278c-27.249,8.689-53.841,20.439-82.263,22.989
	c-12.522,1.121-26.792-1.532-36.427-10.061c-11.533-10.212-13.309-26.463,0.943-35.612c9.598-6.152,27.269-3.059,27.856,10.281
	c0.452,10.298-14.97,17.932-19.939,6.962c-1.878-4.157,0.254-9.912,4.374-11.759c-7.825,1.595-9.546,12.091-5.335,17.814
	c5.495,7.459,14.089,5.961,20.388,0.309c15.482-13.883-1.138-32.418-18.244-30.589c-29.977,3.205-31.655,42.319-5.318,52.88
	c21.897,8.78,48.074,1.292,69.374-5.541c15.911-5.098,31.369-11.522,47.397-16.291c1.286,0.609,2.585,1.201,3.905,1.753
	c-31.072,14.692-61.6,32.644-95.437,38.683c-21.691,3.874-42.725-1.784-55.822-20.099c-11.868-16.602-10.598-52.591,13.503-58.352
	c-5.063,0.415-9.283,1.612-12.74,3.436c-21.251,11.17-17.323,45.027-5.198,61.352c26.157,35.229,79.415,13.566,110.738-0.798
	c16.537-7.576,32.747-15.422,49.095-22.632c25.691,9.009,57.318,6.936,83.203,5.361c25.085-1.527,50.102-4.786,75.021-8.365
	c10.51,2.499,20.945,5.138,31.269,7.699c-40.218,8.728-80.856,14.315-122.615,14.235c-7.594-0.017-15.393-0.646-23.158-1.287
	c-5.375-0.437-10.733-0.889-16.022-1.149c52.886,15.376,113.612,2.587,165.846-9.781c0.686-0.154,1.372-0.343,2.053-0.506
	c22.22,5.455,44.435,11.622,66.861,16.619c0.132,0.612,0.252,1.221,0.435,1.824c4.483,15.064,24.633,17.895,37.442,12.591
	c4.649,15.525,26.063,22.306,40.924,19.913c4.666-0.752,8.994-2.07,12.969-3.843c2.79,17.626,14.833,30.151,25.76,43.983
	c10.979-13.895,23.078-26.46,25.811-44.203c4.1,1.881,8.583,3.288,13.432,4.063c14.861,2.393,36.275-4.389,40.93-19.913
	c12.803,5.304,32.948,2.473,37.436-12.591c0.177-0.603,0.309-1.212,0.429-1.824c22.426-4.997,44.646-11.165,66.861-16.619
	c0.689,0.163,1.367,0.352,2.053,0.506c52.24,12.368,112.965,25.157,165.846,9.781c-5.283,0.26-10.647,0.712-16.016,1.149
	c-7.771,0.641-15.559,1.269-23.158,1.287c-41.765,0.08-82.403-5.507-122.618-14.235c10.327-2.562,20.768-5.201,31.272-7.699
	c24.919,3.579,49.936,6.839,75.015,8.365c25.888,1.575,57.512,3.648,83.209-5.361c16.348,7.211,32.564,15.056,49.095,22.632
	c31.318,14.364,84.575,36.027,110.735,0.798C1152.208,608.128,1156.13,574.272,1134.876,563.102z M682.939,570.132
	c29.454,0.863,56.918,10.944,85.102,18.261c-6.536,2.156-12.991,4.514-19.327,7.13c-8.68-2.31-17.343-4.714-26.023-7.219
	c-17.772-5.117-46.322-13.117-59.525,5.818c-2.556,3.68-4.037,7.396-4.683,11.084c-3.511-0.872-7.193-1.181-10.887-0.757
	c-8.514,0.986-18.023,7.405-21.557,15.782c-7.591-5.438-13.472-13.357-17.091-22.24c5.204-10.73,14.49-17.366,25.331-21.471
	c4.062,7.588,13.569,10.23,22.329,10.867c9.995,0.72,23.244-5.009,26.046-15.882C682.779,571.038,682.848,570.587,682.939,570.132z
	 M654.052,629.125c-5.69-0.446-11.247-1.435-16.605-3.128c-2.442-0.772-4.763-1.801-6.976-2.999
	c0.909-3.691,2.951-7.156,5.895-9.563c6.279-5.141,14.467-6.464,21.763-4.843c-0.263,7.634,3.105,14.878,8.726,20.676
	c-2.985,0.143-5.941,0.149-8.883,0.052c-0.557-3.274-2.113-6.267-4.474-8.154c-2.865-2.296-6.924-2.939-11.825-0.397
	C648.345,617.292,653.246,623.012,654.052,629.125z M654.126,631.804c-0.109,1.47-0.463,2.896-1.149,4.148
	c-3.86,7.113-12.923,6.907-18.458,1.987c-3.397-3.036-4.769-7.308-4.54-11.605C637.601,629.548,645.783,631.224,654.126,631.804z
	 M638.533,575.072c12.488-3.868,26.486-4.866,38.563-5.032c0.171-0.006,0.349,0.011,0.532,0.011
	c-1.172,4.166-3.711,7.859-8.097,10.284C660.279,585.436,644.514,584.71,638.533,575.072z M624.615,541.224
	c14.615-8.803,34.748-8.789,46.991,5.072c4.786,5.426,7.59,13.743,6.57,21.122c-12.254-0.266-24.496,0.755-36.504,3.571
	c-1.515,0.346-3.002,0.755-4.506,1.178c-2.064-6.859,1.584-17.357,8.508-19.67c4.718-1.572,9.035,1.032,11.105,4.94
	c1.241,2.353,1.67,5.175,0.875,7.859c9.343-10.947-8.371-21.28-17.949-14.764c-7.611,5.195-9.092,14.315-6.759,22.689
	c0.028,0.089,0.063,0.166,0.086,0.257c-10.613,3.662-20.236,9.455-26.315,17.935c-1.007-3.737-1.595-7.574-1.778-11.402
	c12.522-3.013,21.603-13.18,21.185-28.104C626.013,548.135,625.479,544.584,624.615,541.224z M604.905,575.681
	c0.423-11.036,4.534-21.734,13.254-29.688c0.669-0.618,1.389-1.187,2.11-1.755C621.865,558.456,617.13,571.596,604.905,575.681z
	 M599.742,508.331c8.16,9.455,16.908,19.327,19.71,31.023c-11.485,8.749-18.04,22.852-19.075,37.37
	c-0.212,0.026-0.412,0.08-0.635,0.097c-0.034,0-0.077-0.011-0.12-0.017c-1.023-14.724-7.737-29.028-19.499-37.759
	C583.005,527.481,591.662,517.7,599.742,508.331z M600.479,619.259c-0.252-0.032-0.48-0.08-0.738-0.086
	c-0.071,0-0.137,0.006-0.212,0.017c0.2-1.613,0.355-3.242,0.406-4.918c0.206-6.118-0.884-11.496-2.916-16.242
	c1.853-5.495,2.75-11.33,2.75-17.194c0.155-0.011,0.297-0.043,0.458-0.06c0,5.887,0.886,11.742,2.745,17.254
	c-2.03,4.746-3.116,10.124-2.916,16.242C600.119,615.971,600.268,617.62,600.479,619.259z M579.271,543.86
	c0.883,0.681,1.75,1.387,2.573,2.133c8.76,7.991,12.871,18.749,13.254,29.845C582.388,571.907,577.527,558.413,579.271,543.86z
	 M528.398,546.296c12.108-13.729,31.953-13.861,46.545-5.327c-0.909,3.439-1.464,7.068-1.572,10.939
	c-0.423,15.13,8.903,25.337,21.683,28.201c-0.194,3.802-0.783,7.599-1.778,11.305c-6.078-8.48-15.696-14.272-26.314-17.935
	c0.023-0.091,0.063-0.169,0.086-0.257c2.333-8.374,0.858-17.494-6.759-22.689c-9.572-6.516-27.286,3.817-17.949,14.764
	c-0.795-2.685-0.366-5.506,0.88-7.859c2.07-3.908,6.381-6.513,11.105-4.94c6.93,2.313,10.567,12.811,8.5,19.67
	c-1.484-0.423-2.982-0.832-4.492-1.178c-12.019-2.816-24.262-3.837-36.515-3.571C520.799,560.039,523.601,551.723,528.398,546.296z
	 M561.465,575.072c-5.987,9.638-21.751,10.364-30.997,5.263c-4.38-2.424-6.925-6.118-8.097-10.284c0.177,0,0.354-0.017,0.537-0.011
	C534.974,570.206,548.971,571.204,561.465,575.072z M517.065,570.132c0.086,0.455,0.16,0.906,0.275,1.372
	c2.808,10.873,16.056,16.602,26.051,15.882c8.766-0.637,18.263-3.279,22.323-10.867c10.853,4.106,20.139,10.742,25.337,21.471
	c-3.619,8.883-9.497,16.803-17.091,22.24c-3.528-8.377-13.043-14.795-21.563-15.782c-3.694-0.423-7.379-0.115-10.881,0.757
	c-0.652-3.688-2.127-7.405-4.683-11.084c-13.209-18.935-41.759-10.936-59.525-5.818c-8.669,2.505-17.349,4.909-26.029,7.219
	c-6.318-2.616-12.78-4.975-19.315-7.13C460.153,581.076,487.605,570.995,517.065,570.132z M546.496,621.165
	c-2.356,1.887-3.905,4.88-4.472,8.154c-2.939,0.097-5.901,0.091-8.886-0.052c5.621-5.798,8.994-13.043,8.737-20.676
	c7.29-1.621,15.479-0.297,21.757,4.843c2.951,2.407,4.986,5.873,5.89,9.563c-2.207,1.198-4.534,2.227-6.959,2.999
	c-5.369,1.692-10.927,2.682-16.611,3.128c0.801-6.113,5.69-11.833,12.374-8.357C553.431,618.226,549.372,618.87,546.496,621.165z
	 M570.019,626.334c0.229,4.297-1.144,8.569-4.546,11.605c-5.524,4.92-14.587,5.126-18.458-1.987
	c-0.68-1.252-1.041-2.679-1.149-4.148C554.209,631.224,562.392,629.548,570.019,626.334z M219.372,595.566
	c3.368-0.872,6.758-1.701,10.178-2.436c-2.619,1.124-5.238,2.27-7.839,3.468C220.927,596.263,220.144,595.92,219.372,595.566z
	 M360.814,597.873c-15.353,2.081-30.66,4.183-46.093,5.626c-26.475,2.479-53.858,3.949-79.927-2.573
	c-2.676-0.669-5.655-1.552-8.726-2.647c6.782-2.907,13.609-5.669,20.493-8.248c11.384-1.75,22.866-2.879,34.182-3.634
	c30.351-2.024,60.823,3.222,90.745,10.104C367.921,596.944,364.353,597.384,360.814,597.873z M348.725,588.613
	c-30.088-5.818-59.576-6.679-89.402-3.105c17.674-5.849,35.898-10.189,55.236-11.931c27.607-2.479,55.362,3.148,81.945,10.015
	c6.976,1.801,13.906,3.794,20.819,5.813c-11.991,2.733-24.307,4.417-36.616,5.955C370.083,592.967,359.43,590.688,348.725,588.613z
	 M386.756,596.749c5.838-0.846,11.665-1.704,17.489-2.545c6.012-0.88,11.954-2.067,17.854-3.414
	c7.462,2.199,14.93,4.42,22.438,6.504c-9.132,2.353-18.269,4.597-27.418,6.676C407.015,601.507,396.895,599.077,386.756,596.749z
	 M488.452,625.217c9.544,2.03,19.133,3.834,28.779,5.209c0.652,0.092,1.312,0.18,1.973,0.26c-0.097,1.87,0.023,3.645,0.337,5.318
	C507.682,640.69,493.369,636.247,488.452,625.217z M519.506,627.935c-10.967-1.564-21.917-4.151-32.358-6.761
	c-0.44-2.082-0.583-4.323-0.366-6.733c1.146-12.751,16.977-20.911,27.938-12.888c7.765,5.695,2.333,18.435-6.993,16.399
	c-5.993-1.304-6.559-11.811,0.538-11.665c-9.503-0.2-12.66,11.665-3.442,15.087c7.079,2.633,15.473,0.386,18.189-7.248
	c5.123-14.407-10.824-20.102-22.186-18.381c-11.919,1.81-19.499,12.805-19.099,24.067c-3.482-0.869-6.907-1.727-10.229-2.524
	c-16.251-3.871-32.45-7.925-48.661-11.911c8.737-2.141,17.44-4.403,26.126-6.747c8.1,2.604,16.325,6.087,24.753,7.445
	c-6.13-3.294-12.448-6.278-18.892-9.049c2.316-0.64,4.637-1.226,6.947-1.884c17.76-5.055,37.333-13.952,55.945-8.897
	c11.007,2.985,17.308,11.367,18.518,20.785C527.677,610.87,521.01,618.415,519.506,627.935z M536.449,610.41
	c0,5.604-1.727,11.382-5.341,16.476c-0.543,0.766-1.121,1.473-1.715,2.15c-1.75-0.131-3.505-0.303-5.272-0.506
	C524.195,620.062,529.401,613.686,536.449,610.41z M524.278,631.298c0.878,0.088,1.747,0.169,2.622,0.243
	c-0.737,0.643-1.504,1.221-2.281,1.764C524.469,632.621,524.361,631.955,524.278,631.298z M573.673,652.214
	c-16.857,9.032-42.651,2.333-48.432-16.645c1.853-1.141,3.608-2.393,5.215-3.765c3.768,0.232,7.571,0.323,11.356,0.2
	c-0.017,6.518,3.9,13.177,13.231,13.738c10.587,0.643,20.493-8.194,20.345-18.99c-0.017-0.961-0.149-1.898-0.326-2.828
	c1.498-0.812,2.962-1.652,4.391-2.599c6.267-4.134,11.019-9.623,14.352-15.851c1.221,4.783,1.475,9.678,0.938,14.478
	c-12.614,2.962-21.797,13.143-21.374,28.133C573.405,649.495,573.513,650.868,573.673,652.214z M594.007,624.493
	c-2.11,9.464-7.422,18.181-15.067,24.242C579.403,637.596,584.212,628.064,594.007,624.493z M619.972,658.064
	c-2.036,12.843-11.476,23.464-20.23,33.602c-8.749-10.138-18.178-20.759-20.219-33.602c-0.343-2.124-0.543-4.24-0.606-6.321
	c10.258-6.181,17.32-16.042,19.922-28.413c0.314-0.049,0.589-0.12,0.903-0.149c0.497,0.052,0.955,0.163,1.435,0.246
	c2.568,12.125,9.423,21.837,19.39,28.027C620.521,653.618,620.327,655.842,619.972,658.064z M606.043,624.728
	c9.28,3.665,13.924,12.829,14.472,23.561C613.231,642.299,608.136,633.877,606.043,624.728z M625.868,651.957
	c0.131-1.258,0.217-2.553,0.257-3.871c0.417-14.795-8.503-24.919-20.865-28.024c-0.549-4.838-0.297-9.767,0.927-14.587
	c3.351,6.227,8.091,11.716,14.358,15.851c1.43,0.946,2.899,1.787,4.391,2.599c-0.183,0.929-0.314,1.867-0.32,2.828
	c-0.155,10.796,9.749,19.633,20.339,18.99c9.343-0.561,13.255-7.219,13.232-13.738c3.785,0.123,7.582,0.031,11.35-0.2
	c1.613,1.372,3.362,2.625,5.209,3.765C668.919,654.725,642.696,661.375,625.868,651.957z M675.391,633.305
	c-0.795-0.543-1.561-1.121-2.298-1.764c0.869-0.074,1.75-0.155,2.625-0.243C675.637,631.955,675.523,632.621,675.391,633.305z
	 M670.606,629.036c-0.595-0.677-1.172-1.384-1.721-2.15c-3.614-5.095-5.329-10.873-5.335-16.476
	c7.039,3.276,12.254,9.652,12.328,18.12C674.111,628.733,672.355,628.905,670.606,629.036z M680.452,636.004
	c0.315-1.673,0.44-3.448,0.34-5.318c0.66-0.08,1.324-0.169,1.976-0.26c9.646-1.375,19.224-3.179,28.779-5.209
	C706.624,636.247,692.317,640.69,680.452,636.004z M728.506,617.289c-3.334,0.798-6.747,1.655-10.235,2.524
	c0.395-11.262-7.182-22.257-19.098-24.067c-11.367-1.721-27.315,3.974-22.186,18.381c2.716,7.634,11.105,9.881,18.184,7.248
	c9.223-3.422,6.067-15.287-3.436-15.087c7.096-0.146,6.524,10.361,0.532,11.665c-9.326,2.036-14.747-10.704-6.987-16.399
	c10.961-8.022,26.789,0.137,27.944,12.888c0.212,2.41,0.063,4.652-0.372,6.733c-10.441,2.61-21.397,5.197-32.358,6.761
	c-1.504-9.52-8.171-17.065-16.731-20.905c1.218-9.418,7.508-17.8,18.521-20.785c18.612-5.055,38.191,3.843,55.945,8.897
	c2.304,0.658,4.632,1.244,6.948,1.884c-6.447,2.77-12.763,5.755-18.893,9.049c8.423-1.358,16.657-4.84,24.748-7.445
	c8.683,2.344,17.4,4.606,26.131,6.747C760.951,609.363,744.751,613.417,728.506,617.289z M782.874,603.971
	c-9.149-2.079-18.286-4.323-27.412-6.676c7.508-2.084,14.976-4.306,22.443-6.504c5.89,1.347,11.836,2.533,17.846,3.414
	c5.827,0.841,11.653,1.698,17.491,2.545C803.098,599.077,792.989,601.507,782.874,603.971z M819.292,595.36
	c-12.305-1.538-24.633-3.222-36.63-5.955c6.919-2.019,13.849-4.011,20.82-5.813c26.595-6.867,54.356-12.494,81.962-10.015
	c19.327,1.741,37.556,6.081,55.23,11.931c-29.822-3.574-59.307-2.713-89.396,3.105C840.574,590.688,829.91,592.967,819.292,595.36z
	 M965.199,600.926c-26.063,6.522-53.447,5.052-79.927,2.573c-15.422-1.444-30.74-3.545-46.087-5.626
	c-3.545-0.489-7.107-0.929-10.679-1.372c29.931-6.882,60.408-12.128,90.748-10.104c11.316,0.755,22.792,1.884,34.182,3.634
	c6.884,2.579,13.706,5.341,20.488,8.248C970.863,599.374,967.886,600.257,965.199,600.926z M978.288,596.598
	c-2.608-1.198-5.221-2.344-7.845-3.468c3.425,0.735,6.81,1.564,10.189,2.436C979.849,595.92,979.071,596.263,978.288,596.598z"/>
</svg>
